<?xml version="1.0" encoding="utf-8"?>
<!-- Generator: Adobe Illustrator 25.0.0, SVG Export Plug-In . SVG Version: 6.00 Build 0)  -->
<svg version="1.1" id="Camada_1" xmlns="http://www.w3.org/2000/svg" xmlns:xlink="http://www.w3.org/1999/xlink" x="0px" y="0px"
	 viewBox="0 0 512 408" style="enable-background:new 0 0 512 408;" xml:space="preserve">
<style type="text/css">
	.st0{fill:#A5AFD3;}
</style>
<g id="XMLID_20_">
	<g id="XMLID_35_">
		<path id="XMLID_36_" class="st0" d="M371,157.4V88.9h-68.4c-21.3,0-39.5,13.4-46.6,32.2c-7.1-18.8-25.3-32.2-46.6-32.2h-68.4v68.4
			c0,21.3,13.4,39.5,32.2,46.6c-18.8,7.1-32.2,25.3-32.2,46.6V319h68.4c21.3,0,39.5-13.4,46.6-32.2c7.1,18.8,25.3,32.2,46.6,32.2
			H371v-68.4c0-21.3-13.4-39.5-32.2-46.6C357.7,196.9,371,178.7,371,157.4z M248.7,217.1v3.4v48.7c0,21.7-17.7,39.4-39.3,39.4h-57.9
			v-57.9c0-21.7,17.6-39.3,39.4-39.3h48.7h9.2L248.7,217.1L248.7,217.1z M252.8,200.8h-9.2l-4.1-4.1h-48.7
			c-21.7,0-39.4-17.7-39.4-39.4V99.5h57.9c21.7,0,39.4,17.7,39.4,39.4v48.7l4.1,4.1V200.8z M360.5,250.6v57.9h-57.9
			c-21.7,0-39.4-17.6-39.4-39.4v-48.7l-4-4.1V213v-5.8h9.2l4,4.1h48.7C342.9,211.3,360.5,228.9,360.5,250.6z M321.1,196.7h-48.7
			h-9.2v-5.8v-3.4v-48.7c0-21.7,17.6-39.3,39.4-39.3h57.9v57.9C360.5,179,342.9,196.7,321.1,196.7z"/>
	</g>
	<g id="XMLID_27_">
		<path id="XMLID_31_" class="st0" d="M268.4,207.2l-3.2-3.2l3.2-3.2h-15.6v15.6l3.2-3.2l3.2,3.2l4,4.1v-9.2h9.2L268.4,207.2z
			 M268.4,207.2l-3.2-3.2l3.2-3.2h-14.9l-0.7,0.7v5l3.2,3.2l3.2,3.2v3.4l4,4.1v-9.2h9.2L268.4,207.2z M268.4,207.2l-3.2-3.2l3.2-3.2
			h-14.9l-0.7,0.7v5l3.2,3.2l3.2,3.2v3.4l4,4.1v-9.2h9.2L268.4,207.2z"/>
		<path id="XMLID_28_" class="st0" d="M256,194.8l-7.3-7.3v9.2h-9.2l7.3,7.3l-3.2,3.2h15.7v-15.7L256,194.8z M252.8,206.5l-2.5-2.5
			l-7.3-7.3h-3.4l7.3,7.3l-3.2,3.2h9.9L252.8,206.5z"/>
	</g>
	<g id="XMLID_21_">
		<path id="XMLID_7_" class="st0" d="M193.9,77L256,14.9L318.1,77c3.5,3.5,6.2,7.6,8.1,11.9h11.3c-2.4-7.1-6.4-13.7-12-19.3L256,0
			l-69.6,69.6c-5.6,5.6-9.6,12.3-12,19.3h11.3C187.6,84.6,190.3,80.6,193.9,77z"/>
		<path id="XMLID_6_" class="st0" d="M318.1,331L256,393.1l-62.1-62.1c-3.5-3.5-6.2-7.6-8.1-11.9h-11.3c2.4,7.1,6.4,13.7,12,19.4
			L256,408l69.6-69.6c5.6-5.6,9.7-12.3,12-19.4h-11.3C324.4,323.4,321.7,327.4,318.1,331z"/>
		<path id="XMLID_5_" class="st0" d="M327.3,141.9L265.2,204l3.2,3.2l4,4.1l54.9,54.9c7.4,7.4,17.3,11.5,27.8,11.5
			c1.8,0,3.6-0.1,5.4-0.4v10.6c-1.8,0.2-3.6,0.3-5.4,0.3c-6.2,0-12.5-1.2-18.4-3.5c3,7.6,4.1,15.8,3.2,23.8h-10.6
			c1.6-11.8-2.1-24.2-11.1-33.2l-54.9-54.9l-4-4.1l-3.2-3.2l-62.1,62.1c-9,9-12.8,21.4-11.1,33.2h-10.7c-0.9-8,0.2-16.2,3.2-23.8
			c-5.9,2.4-12.2,3.5-18.4,3.5c-1.8,0-3.6-0.1-5.4-0.3v-10.6c1.8,0.3,3.6,0.4,5.4,0.4c10.5,0,20.4-4.1,27.8-11.5l54.8-54.9l4.1-4.1
			l3.2-3.2l-7.3-7.3l-54.8-54.8c-7.4-7.4-17.3-11.5-27.8-11.5c-1.8,0-3.6,0.1-5.4,0.4v-10.6c1.8-0.2,3.6-0.3,5.4-0.3
			c6.3,0,12.5,1.2,18.4,3.5c-3-7.6-4.1-15.8-3.2-23.8h10.7c-1.6,11.8,2.1,24.2,11.1,33.2l54.8,54.8l7.3,7.3l3.2-3.2l4-4.1l54.9-54.8
			c9-9.1,12.8-21.4,11.1-33.2h10.6c0.9,8-0.2,16.2-3.2,23.8c5.9-2.4,12.2-3.5,18.4-3.5c1.8,0,3.6,0.1,5.4,0.3v10.6
			c-1.8-0.3-3.6-0.4-5.4-0.4C344.6,130.3,334.7,134.4,327.3,141.9z"/>
		<path id="XMLID_4_" class="st0" d="M52,204l69.6,69.6c5.6,5.6,12.3,9.6,19.3,12v-11.3c-4.4-1.9-8.4-4.7-11.9-8.2L66.9,204
			l62.1-62.1c3.5-3.5,7.5-6.2,11.9-8.2v-11.3c-7.1,2.4-13.7,6.4-19.3,12L52,204z"/>
		<path id="XMLID_3_" class="st0" d="M390.4,134.4c-5.6-5.6-12.3-9.6-19.4-12v11.3c4.4,1.9,8.4,4.7,11.9,8.2l62.1,62.1l-62.1,62.1
			c-3.5,3.5-7.5,6.2-11.9,8.2v11.3c7.1-2.4,13.7-6.4,19.4-12L460,204L390.4,134.4z"/>
	</g>
</g>
</svg>
